<?xml version="1.0" standalone="no"?>
<!DOCTYPE svg PUBLIC "-//W3C//DTD SVG 20010904//EN"
 "http://www.w3.org/TR/2001/REC-SVG-20010904/DTD/svg10.dtd">
<svg version="1.0" xmlns="http://www.w3.org/2000/svg"
 width="700.000000pt" height="700.000000pt" viewBox="0 0 700.000000 700.000000"
 preserveAspectRatio="xMidYMid meet">
<metadata>
Created by potrace 1.14, written by Peter Selinger 2001-2017
</metadata>
<g transform="translate(0.000000,700.000000) scale(0.100000,-0.100000)"
fill="#000000" stroke="none">
<path d="M2005 6890 l-1490 -5 -57 -22 c-158 -60 -274 -183 -325 -341 l-23
-73 0 -2949 0 -2949 23 -74 c54 -169 181 -294 354 -347 65 -20 91 -20 3014
-20 l2948 0 74 23 c167 53 290 178 344 345 l23 73 0 2949 0 2949 -23 74 c-54
169 -182 295 -352 346 -70 21 -77 21 -1545 24 -811 1 -2145 0 -2965 -3z m4487
-242 c66 -31 124 -87 158 -154 l25 -49 0 -1470 0 -1470 -100 0 c-95 0 -100 1
-103 22 -2 12 -19 36 -38 53 l-35 30 -1394 0 -1395 0 0 1395 0 1395 -32 35
c-25 27 -42 36 -68 37 -51 2 -72 -8 -97 -45 l-23 -33 0 -1392 0 -1392 -1392 0
-1392 0 -33 -22 c-53 -36 -65 -115 -24 -162 41 -48 -7 -46 1456 -46 756 0
1376 -1 1377 -2 1 -2 4 -631 7 -1399 6 -1359 7 -1397 25 -1418 11 -12 33 -25
50 -29 l31 -8 3 -97 c3 -93 2 -97 -20 -102 -13 -3 -671 -4 -1463 -3 l-1440 3
-56 26 c-78 37 -124 82 -158 153 l-29 61 -4 2935 -3 2935 23 50 c44 95 136
169 231 185 25 4 1353 7 2951 6 l2905 -1 57 -27z"/>
<path d="M5111 6306 c-19 -6 -44 -24 -55 -39 -21 -28 -21 -39 -24 -523 l-3
-494 -495 0 -496 0 -29 -29 c-23 -24 -29 -38 -29 -73 0 -24 7 -54 16 -67 35
-50 48 -51 559 -51 l475 0 0 -467 c0 -290 4 -482 10 -505 22 -76 117 -105 177
-54 l28 24 3 501 3 500 492 3 c451 3 494 4 518 21 66 45 63 154 -6 185 -19 9
-157 12 -515 12 l-490 0 0 499 c0 556 4 525 -70 555 -28 11 -42 12 -69 2z"/>
<path d="M872 6175 c-45 -19 -68 -75 -53 -125 8 -27 112 -137 446 -470 l435
-435 -440 -440 -440 -441 0 -51 c0 -44 4 -56 28 -78 15 -14 35 -28 45 -31 56
-18 70 -6 522 446 l440 440 440 -439 c293 -293 449 -442 468 -446 78 -20 152
54 132 133 -4 18 -153 174 -446 467 l-439 440 440 440 c452 452 464 466 446
522 -3 10 -17 30 -31 46 -22 23 -34 27 -78 27 l-51 0 -441 -440 -440 -440
-430 431 c-242 243 -444 437 -462 445 -40 17 -49 17 -91 -1z"/>
<path d="M1763 3149 c-112 -22 -240 -114 -299 -215 -35 -59 -64 -164 -64 -229
1 -96 50 -230 108 -291 73 -77 157 -125 256 -148 88 -21 117 -20 205 4 226 63
363 272 330 504 -36 254 -281 426 -536 375z m145 -230 c135 -29 211 -186 151
-314 -47 -99 -146 -143 -267 -119 -75 15 -162 133 -162 219 0 90 80 194 166
214 53 12 56 12 112 0z"/>
<path d="M738 1954 c-32 -17 -58 -62 -58 -100 0 -32 33 -89 58 -99 9 -4 512
-7 1117 -6 1215 3 1132 -2 1161 66 18 45 9 87 -28 122 l-29 28 -1097 2 c-957
2 -1101 0 -1124 -13z"/>
<path d="M1775 1449 c-133 -22 -259 -118 -322 -246 -31 -64 -37 -86 -41 -160
-8 -151 30 -256 129 -354 34 -34 84 -70 125 -90 67 -32 73 -34 189 -34 115 0
123 1 187 33 186 91 289 283 258 480 -31 189 -183 342 -370 372 -73 11 -85 11
-155 -1z m185 -240 c135 -68 163 -253 54 -363 -91 -91 -237 -86 -325 11 -46
51 -62 100 -57 172 12 158 184 253 328 180z"/>
</g>
</svg>
